%TF.GenerationSoftware,KiCad,Pcbnew,(5.99.0-10065-g0a0935e0f3)*%
%TF.CreationDate,2021-04-15T14:15:54+02:00*%
%TF.ProjectId,pimop,70696d6f-702e-46b6-9963-61645f706362,rev?*%
%TF.SameCoordinates,Original*%
%TF.FileFunction,Soldermask,Bot*%
%TF.FilePolarity,Negative*%
%FSLAX46Y46*%
G04 Gerber Fmt 4.6, Leading zero omitted, Abs format (unit mm)*
G04 Created by KiCad (PCBNEW (5.99.0-10065-g0a0935e0f3)) date 2021-04-15 14:15:54*
%MOMM*%
%LPD*%
G01*
G04 APERTURE LIST*
%ADD10C,1.500000*%
%ADD11C,1.524000*%
%ADD12C,2.000000*%
%ADD13C,4.400000*%
%ADD14R,1.524000X1.524000*%
%ADD15O,1.800000X1.800000*%
%ADD16O,1.500000X1.500000*%
%ADD17O,1.700000X1.700000*%
%ADD18R,1.700000X1.700000*%
%ADD19R,1.524000X1.500000*%
G04 APERTURE END LIST*
D10*
%TO.C,U2*%
X104110000Y-84965000D03*
X106650000Y-84965000D03*
X109190000Y-84965000D03*
%TD*%
D11*
%TO.C,SW1*%
X198390000Y-133640000D03*
X202890000Y-133640000D03*
X202890000Y-127140000D03*
X198390000Y-127140000D03*
%TD*%
D12*
%TO.C,CON1*%
X84295000Y-90225000D03*
X84295000Y-85145000D03*
%TD*%
D13*
%TO.C,H4*%
X80310000Y-28065000D03*
%TD*%
%TO.C,H1*%
X203040000Y-150855000D03*
%TD*%
D10*
%TO.C,CON3*%
X154595000Y-124385000D03*
X157135000Y-124385000D03*
X159675000Y-124385000D03*
X162215000Y-124385000D03*
X164755000Y-124385000D03*
X167295000Y-124385000D03*
X169835000Y-124385000D03*
X172375000Y-124385000D03*
X174915000Y-124385000D03*
X177455000Y-124385000D03*
X179995000Y-124385000D03*
X182535000Y-124385000D03*
X185075000Y-124385000D03*
X187615000Y-124385000D03*
X190155000Y-124385000D03*
X192695000Y-124385000D03*
%TD*%
D14*
%TO.C,U1*%
X164540000Y-35705000D03*
D11*
X164540000Y-33165000D03*
X167080000Y-35705000D03*
X167080000Y-33165000D03*
X169620000Y-35705000D03*
X169620000Y-33165000D03*
X172160000Y-35705000D03*
X172160000Y-33165000D03*
X174700000Y-35705000D03*
X174700000Y-33165000D03*
X177240000Y-35705000D03*
X177240000Y-33165000D03*
X179780000Y-35705000D03*
X179780000Y-33165000D03*
X182320000Y-35705000D03*
X182320000Y-33165000D03*
%TD*%
D15*
%TO.C,mod1*%
X203675000Y-105935000D03*
X203675000Y-100485000D03*
D16*
X200645000Y-105635000D03*
X200645000Y-100785000D03*
D17*
X203805000Y-94320000D03*
X201265000Y-94320000D03*
D18*
X198725000Y-94320000D03*
D17*
X196185000Y-94320000D03*
X193645000Y-94320000D03*
X191105000Y-94320000D03*
X188565000Y-94320000D03*
D18*
X186025000Y-94320000D03*
D17*
X183485000Y-94320000D03*
X180945000Y-94320000D03*
X178405000Y-94320000D03*
X175865000Y-94320000D03*
D18*
X173325000Y-94320000D03*
D17*
X170785000Y-94320000D03*
X168245000Y-94320000D03*
X165705000Y-94320000D03*
X163165000Y-94320000D03*
D18*
X160625000Y-94320000D03*
D17*
X158085000Y-94320000D03*
X155545000Y-94320000D03*
X155545000Y-112100000D03*
X158085000Y-112100000D03*
D18*
X160625000Y-112100000D03*
D17*
X163165000Y-112100000D03*
X165705000Y-112100000D03*
X168245000Y-112100000D03*
X170785000Y-112100000D03*
D18*
X173325000Y-112100000D03*
D17*
X175865000Y-112100000D03*
X178405000Y-112100000D03*
X180945000Y-112100000D03*
X183485000Y-112100000D03*
D18*
X186025000Y-112100000D03*
D17*
X188565000Y-112100000D03*
X191105000Y-112100000D03*
X193645000Y-112100000D03*
X196185000Y-112100000D03*
D18*
X198725000Y-112100000D03*
D17*
X201265000Y-112100000D03*
X203805000Y-112100000D03*
X155775000Y-100670000D03*
D18*
X155775000Y-103210000D03*
D17*
X155775000Y-105750000D03*
%TD*%
D10*
%TO.C,CON2*%
X161250000Y-83680000D03*
X163790000Y-83680000D03*
X166330000Y-83680000D03*
X168870000Y-83680000D03*
X171410000Y-83680000D03*
X173950000Y-83680000D03*
X176490000Y-83680000D03*
X179030000Y-83680000D03*
X181570000Y-83680000D03*
X184110000Y-83680000D03*
X186650000Y-83680000D03*
X189190000Y-83680000D03*
X191730000Y-83680000D03*
X194270000Y-83680000D03*
X196810000Y-83680000D03*
X199350000Y-83680000D03*
%TD*%
%TO.C,CON4*%
X193045000Y-133145000D03*
X190505000Y-133145000D03*
X187965000Y-133145000D03*
X185425000Y-133145000D03*
X182885000Y-133145000D03*
X180345000Y-133145000D03*
X177805000Y-133145000D03*
X175265000Y-133145000D03*
X172725000Y-133145000D03*
X170185000Y-133145000D03*
X167645000Y-133145000D03*
X165105000Y-133145000D03*
X162565000Y-133145000D03*
X160025000Y-133145000D03*
X157485000Y-133145000D03*
X154945000Y-133145000D03*
%TD*%
D13*
%TO.C,H3*%
X80300000Y-150845000D03*
%TD*%
%TO.C,H2*%
X203050000Y-28095000D03*
%TD*%
D19*
%TO.C,U3*%
X90175000Y-134205000D03*
D10*
X92715000Y-134205000D03*
X90175000Y-131665000D03*
X92715000Y-131665000D03*
X90175000Y-129125000D03*
X92715000Y-129125000D03*
X90175000Y-126585000D03*
X92715000Y-126585000D03*
%TD*%
M02*
