%TF.GenerationSoftware,KiCad,Pcbnew,(5.99.0-10065-g0a0935e0f3)*%
%TF.CreationDate,2021-04-15T14:15:54+02:00*%
%TF.ProjectId,pimop,70696d6f-702e-46b6-9963-61645f706362,rev?*%
%TF.SameCoordinates,Original*%
%TF.FileFunction,Soldermask,Top*%
%TF.FilePolarity,Negative*%
%FSLAX46Y46*%
G04 Gerber Fmt 4.6, Leading zero omitted, Abs format (unit mm)*
G04 Created by KiCad (PCBNEW (5.99.0-10065-g0a0935e0f3)) date 2021-04-15 14:15:54*
%MOMM*%
%LPD*%
G01*
G04 APERTURE LIST*
G04 Aperture macros list*
%AMRoundRect*
0 Rectangle with rounded corners*
0 $1 Rounding radius*
0 $2 $3 $4 $5 $6 $7 $8 $9 X,Y pos of 4 corners*
0 Add a 4 corners polygon primitive as box body*
4,1,4,$2,$3,$4,$5,$6,$7,$8,$9,$2,$3,0*
0 Add four circle primitives for the rounded corners*
1,1,$1+$1,$2,$3*
1,1,$1+$1,$4,$5*
1,1,$1+$1,$6,$7*
1,1,$1+$1,$8,$9*
0 Add four rect primitives between the rounded corners*
20,1,$1+$1,$2,$3,$4,$5,0*
20,1,$1+$1,$4,$5,$6,$7,0*
20,1,$1+$1,$6,$7,$8,$9,0*
20,1,$1+$1,$8,$9,$2,$3,0*%
%AMFreePoly0*
4,1,6,1.000000,0.000000,0.500000,-0.750000,-0.500000,-0.750000,-0.500000,0.750000,0.500000,0.750000,1.000000,0.000000,1.000000,0.000000,$1*%
G04 Aperture macros list end*
%ADD10RoundRect,0.250000X-0.300000X0.250000X-0.300000X-0.250000X0.300000X-0.250000X0.300000X0.250000X0*%
%ADD11RoundRect,0.250000X0.300000X-0.250000X0.300000X0.250000X-0.300000X0.250000X-0.300000X-0.250000X0*%
%ADD12R,1.000000X1.500000*%
%ADD13C,1.500000*%
%ADD14RoundRect,0.121995X-0.121995X0.746835X-0.121995X-0.746835X0.121995X-0.746835X0.121995X0.746835X0*%
%ADD15C,1.524000*%
%ADD16C,2.000000*%
%ADD17C,4.400000*%
%ADD18RoundRect,0.250000X-0.250000X-0.300000X0.250000X-0.300000X0.250000X0.300000X-0.250000X0.300000X0*%
%ADD19C,4.500000*%
%ADD20R,1.524000X1.524000*%
%ADD21O,1.800000X1.800000*%
%ADD22O,1.500000X1.500000*%
%ADD23R,1.700000X3.500000*%
%ADD24O,1.700000X1.700000*%
%ADD25R,1.700000X1.700000*%
%ADD26R,3.500000X1.700000*%
%ADD27RoundRect,0.250000X0.250000X0.300000X-0.250000X0.300000X-0.250000X-0.300000X0.250000X-0.300000X0*%
%ADD28R,1.500000X1.500000*%
%ADD29FreePoly0,0.000000*%
%ADD30FreePoly0,180.000000*%
%ADD31R,1.800000X1.700000*%
%ADD32R,1.524000X1.500000*%
G04 APERTURE END LIST*
D10*
%TO.C,C7*%
X182645000Y-75015000D03*
X181375000Y-75015000D03*
%TD*%
D11*
%TO.C,C8*%
X191755000Y-68775000D03*
X193025000Y-68775000D03*
%TD*%
D12*
%TO.C,J9*%
X130170000Y-108700000D03*
X128870000Y-108700000D03*
%TD*%
D13*
%TO.C,U2*%
X104110000Y-84965000D03*
X106650000Y-84965000D03*
X109190000Y-84965000D03*
%TD*%
D14*
%TO.C,U4*%
X194931820Y-74779080D03*
X195582060Y-74779080D03*
X196232300Y-74779080D03*
X196880000Y-74779080D03*
X197527700Y-74779080D03*
X198177940Y-74779080D03*
X198828180Y-74779080D03*
X198828180Y-69180920D03*
X198177940Y-69180920D03*
X197527700Y-69180920D03*
X196880000Y-69180920D03*
X196232300Y-69180920D03*
X195582060Y-69180920D03*
X194931820Y-69180920D03*
%TD*%
D15*
%TO.C,SW1*%
X198390000Y-133640000D03*
X202890000Y-133640000D03*
X202890000Y-127140000D03*
X198390000Y-127140000D03*
%TD*%
D11*
%TO.C,C6*%
X191915000Y-74805000D03*
X193185000Y-74805000D03*
%TD*%
D14*
%TO.C,U5*%
X184601820Y-74779080D03*
X185252060Y-74779080D03*
X185902300Y-74779080D03*
X186550000Y-74779080D03*
X187197700Y-74779080D03*
X187847940Y-74779080D03*
X188498180Y-74779080D03*
X188498180Y-69180920D03*
X187847940Y-69180920D03*
X187197700Y-69180920D03*
X186550000Y-69180920D03*
X185902300Y-69180920D03*
X185252060Y-69180920D03*
X184601820Y-69180920D03*
%TD*%
D12*
%TO.C,J4*%
X104680000Y-129160000D03*
X105980000Y-129160000D03*
%TD*%
D16*
%TO.C,CON1*%
X84295000Y-90225000D03*
X84295000Y-85145000D03*
%TD*%
D17*
%TO.C,H4*%
X80310000Y-28065000D03*
%TD*%
D11*
%TO.C,C1*%
X104390000Y-89605000D03*
X105660000Y-89605000D03*
%TD*%
D18*
%TO.C,C13*%
X114360000Y-107220000D03*
X114360000Y-108490000D03*
%TD*%
D17*
%TO.C,H1*%
X203040000Y-150855000D03*
%TD*%
D11*
%TO.C,C9*%
X181495000Y-68995000D03*
X182765000Y-68995000D03*
%TD*%
%TO.C,C15*%
X169350000Y-74750000D03*
X170620000Y-74750000D03*
%TD*%
%TO.C,C16*%
X159970000Y-75740000D03*
X161240000Y-75740000D03*
%TD*%
D19*
%TO.C,FID2*%
X197500000Y-28165000D03*
%TD*%
D13*
%TO.C,CON3*%
X154595000Y-124385000D03*
X157135000Y-124385000D03*
X159675000Y-124385000D03*
X162215000Y-124385000D03*
X164755000Y-124385000D03*
X167295000Y-124385000D03*
X169835000Y-124385000D03*
X172375000Y-124385000D03*
X174915000Y-124385000D03*
X177455000Y-124385000D03*
X179995000Y-124385000D03*
X182535000Y-124385000D03*
X185075000Y-124385000D03*
X187615000Y-124385000D03*
X190155000Y-124385000D03*
X192695000Y-124385000D03*
%TD*%
D20*
%TO.C,U1*%
X164540000Y-35705000D03*
D15*
X164540000Y-33165000D03*
X167080000Y-35705000D03*
X167080000Y-33165000D03*
X169620000Y-35705000D03*
X169620000Y-33165000D03*
X172160000Y-35705000D03*
X172160000Y-33165000D03*
X174700000Y-35705000D03*
X174700000Y-33165000D03*
X177240000Y-35705000D03*
X177240000Y-33165000D03*
X179780000Y-35705000D03*
X179780000Y-33165000D03*
X182320000Y-35705000D03*
X182320000Y-33165000D03*
%TD*%
D21*
%TO.C,mod1*%
X203675000Y-105935000D03*
X203675000Y-100485000D03*
D22*
X200645000Y-105635000D03*
X200645000Y-100785000D03*
D23*
X203805000Y-93420000D03*
D24*
X203805000Y-94320000D03*
D23*
X201265000Y-93420000D03*
D24*
X201265000Y-94320000D03*
D25*
X198725000Y-94320000D03*
D23*
X198725000Y-93420000D03*
D24*
X196185000Y-94320000D03*
D23*
X196185000Y-93420000D03*
D24*
X193645000Y-94320000D03*
D23*
X193645000Y-93420000D03*
X191105000Y-93420000D03*
D24*
X191105000Y-94320000D03*
D23*
X188565000Y-93420000D03*
D24*
X188565000Y-94320000D03*
D23*
X186025000Y-93420000D03*
D25*
X186025000Y-94320000D03*
D24*
X183485000Y-94320000D03*
D23*
X183485000Y-93420000D03*
D24*
X180945000Y-94320000D03*
D23*
X180945000Y-93420000D03*
X178405000Y-93420000D03*
D24*
X178405000Y-94320000D03*
D23*
X175865000Y-93420000D03*
D24*
X175865000Y-94320000D03*
D23*
X173325000Y-93420000D03*
D25*
X173325000Y-94320000D03*
D24*
X170785000Y-94320000D03*
D23*
X170785000Y-93420000D03*
X168245000Y-93420000D03*
D24*
X168245000Y-94320000D03*
X165705000Y-94320000D03*
D23*
X165705000Y-93420000D03*
D24*
X163165000Y-94320000D03*
D23*
X163165000Y-93420000D03*
D25*
X160625000Y-94320000D03*
D23*
X160625000Y-93420000D03*
D24*
X158085000Y-94320000D03*
D23*
X158085000Y-93420000D03*
X155545000Y-93420000D03*
D24*
X155545000Y-94320000D03*
X155545000Y-112100000D03*
D23*
X155545000Y-113000000D03*
D24*
X158085000Y-112100000D03*
D23*
X158085000Y-113000000D03*
D25*
X160625000Y-112100000D03*
D23*
X160625000Y-113000000D03*
X163165000Y-113000000D03*
D24*
X163165000Y-112100000D03*
D23*
X165705000Y-113000000D03*
D24*
X165705000Y-112100000D03*
X168245000Y-112100000D03*
D23*
X168245000Y-113000000D03*
X170785000Y-113000000D03*
D24*
X170785000Y-112100000D03*
D25*
X173325000Y-112100000D03*
D23*
X173325000Y-113000000D03*
X175865000Y-113000000D03*
D24*
X175865000Y-112100000D03*
X178405000Y-112100000D03*
D23*
X178405000Y-113000000D03*
X180945000Y-113000000D03*
D24*
X180945000Y-112100000D03*
D23*
X183485000Y-113000000D03*
D24*
X183485000Y-112100000D03*
D23*
X186025000Y-113000000D03*
D25*
X186025000Y-112100000D03*
D23*
X188565000Y-113000000D03*
D24*
X188565000Y-112100000D03*
X191105000Y-112100000D03*
D23*
X191105000Y-113000000D03*
D24*
X193645000Y-112100000D03*
D23*
X193645000Y-113000000D03*
X196185000Y-113000000D03*
D24*
X196185000Y-112100000D03*
D25*
X198725000Y-112100000D03*
D23*
X198725000Y-113000000D03*
D24*
X201265000Y-112100000D03*
D23*
X201265000Y-113000000D03*
X203805000Y-113000000D03*
D24*
X203805000Y-112100000D03*
D26*
X154875000Y-100670000D03*
D24*
X155775000Y-100670000D03*
D26*
X154875000Y-103210000D03*
D25*
X155775000Y-103210000D03*
D24*
X155775000Y-105750000D03*
D26*
X154875000Y-105750000D03*
%TD*%
D18*
%TO.C,C12*%
X118835000Y-107235000D03*
X118835000Y-108505000D03*
%TD*%
D27*
%TO.C,C5*%
X85905000Y-131275000D03*
X85905000Y-130005000D03*
%TD*%
D12*
%TO.C,J2*%
X104710000Y-134820000D03*
X106010000Y-134820000D03*
%TD*%
D13*
%TO.C,CON2*%
X161250000Y-83680000D03*
X163790000Y-83680000D03*
X166330000Y-83680000D03*
X168870000Y-83680000D03*
X171410000Y-83680000D03*
X173950000Y-83680000D03*
X176490000Y-83680000D03*
X179030000Y-83680000D03*
X181570000Y-83680000D03*
X184110000Y-83680000D03*
X186650000Y-83680000D03*
X189190000Y-83680000D03*
X191730000Y-83680000D03*
X194270000Y-83680000D03*
X196810000Y-83680000D03*
X199350000Y-83680000D03*
%TD*%
D19*
%TO.C,FID1*%
X85560000Y-28145000D03*
%TD*%
D28*
%TO.C,J7*%
X193150000Y-33075000D03*
X190750000Y-33075000D03*
D29*
X189950000Y-33075000D03*
D30*
X193950000Y-33075000D03*
%TD*%
D10*
%TO.C,C2*%
X105675000Y-92365000D03*
X104405000Y-92365000D03*
%TD*%
D14*
%TO.C,U6*%
X172441820Y-74750355D03*
X173092060Y-74750355D03*
X173742300Y-74750355D03*
X174390000Y-74750355D03*
X175037700Y-74750355D03*
X175687940Y-74750355D03*
X176338180Y-74750355D03*
X176338180Y-69152195D03*
X175687940Y-69152195D03*
X175037700Y-69152195D03*
X174390000Y-69152195D03*
X173742300Y-69152195D03*
X173092060Y-69152195D03*
X172441820Y-69152195D03*
%TD*%
D11*
%TO.C,C11*%
X107835000Y-89775000D03*
X109105000Y-89775000D03*
%TD*%
D12*
%TO.C,J5*%
X104720000Y-138360000D03*
X106020000Y-138360000D03*
%TD*%
D11*
%TO.C,C18*%
X158915000Y-68905000D03*
X160185000Y-68905000D03*
%TD*%
D14*
%TO.C,U7*%
X162971820Y-74669080D03*
X163622060Y-74669080D03*
X164272300Y-74669080D03*
X164920000Y-74669080D03*
X165567700Y-74669080D03*
X166217940Y-74669080D03*
X166868180Y-74669080D03*
X166868180Y-69070920D03*
X166217940Y-69070920D03*
X165567700Y-69070920D03*
X164920000Y-69070920D03*
X164272300Y-69070920D03*
X163622060Y-69070920D03*
X162971820Y-69070920D03*
%TD*%
D12*
%TO.C,J3*%
X104680000Y-131750000D03*
X105980000Y-131750000D03*
%TD*%
D27*
%TO.C,C14*%
X83140000Y-131290000D03*
X83140000Y-130020000D03*
%TD*%
D19*
%TO.C,FID3*%
X196020000Y-150835000D03*
%TD*%
D13*
%TO.C,CON4*%
X193045000Y-133145000D03*
X190505000Y-133145000D03*
X187965000Y-133145000D03*
X185425000Y-133145000D03*
X182885000Y-133145000D03*
X180345000Y-133145000D03*
X177805000Y-133145000D03*
X175265000Y-133145000D03*
X172725000Y-133145000D03*
X170185000Y-133145000D03*
X167645000Y-133145000D03*
X165105000Y-133145000D03*
X162565000Y-133145000D03*
X160025000Y-133145000D03*
X157485000Y-133145000D03*
X154945000Y-133145000D03*
%TD*%
D17*
%TO.C,H3*%
X80300000Y-150845000D03*
%TD*%
D11*
%TO.C,C10*%
X107830000Y-92400000D03*
X109100000Y-92400000D03*
%TD*%
%TO.C,C17*%
X169065000Y-69065000D03*
X170335000Y-69065000D03*
%TD*%
D28*
%TO.C,J8*%
X152575000Y-33000000D03*
X154975000Y-33000000D03*
D29*
X151775000Y-33000000D03*
D30*
X155775000Y-33000000D03*
%TD*%
D17*
%TO.C,H2*%
X203050000Y-28095000D03*
%TD*%
D12*
%TO.C,J6*%
X104680000Y-123250000D03*
X105980000Y-123250000D03*
%TD*%
D31*
%TO.C,D1*%
X91225000Y-85050000D03*
X95325000Y-85050000D03*
%TD*%
D32*
%TO.C,U3*%
X90175000Y-134205000D03*
D13*
X92715000Y-134205000D03*
X90175000Y-131665000D03*
X92715000Y-131665000D03*
X90175000Y-129125000D03*
X92715000Y-129125000D03*
X90175000Y-126585000D03*
X92715000Y-126585000D03*
%TD*%
D12*
%TO.C,J1*%
X104690000Y-126390000D03*
X105990000Y-126390000D03*
%TD*%
M02*
