M48
; DRILL file {KiCad (5.99.0-10065-g0a0935e0f3)} date Thu Apr 15 14:16:05 2021
; FORMAT={2:4/ absolute / inch / suppress leading zeros}
; #@! TF.CreationDate,2021-04-15T14:16:05+02:00
; #@! TF.GenerationSoftware,Kicad,Pcbnew,(5.99.0-10065-g0a0935e0f3)
; #@! TF.FileFunction,Plated,1,2,PTH
FMAT,2
INCH,TZ
; #@! TA.AperFunction,ViaDrill
T1C0.0098
; #@! TA.AperFunction,ComponentDrill,Plated,PTH
T2C0.0390
; #@! TA.AperFunction,ComponentDrill,Plated,PTH
T3C0.0402
; #@! TA.AperFunction,ComponentDrill,Plated,PTH
T4C0.0512
; #@! TA.AperFunction,ComponentDrill,Plated,PTH
T5C0.0866
%
G90
G05
T1
X45965Y-41370
X48004Y-49827
X50378Y-49358
X52224Y-53071
X60551Y-53610
X61260Y-14252
X61583Y-27094
X62051Y-29835
X63244Y-53925
X64445Y-19850
X64449Y-30303
X64465Y-31811
X64669Y-28575
X64677Y-24539
X64917Y-30059
X65000Y-55047
X65039Y-27969
X65185Y-26366
X65819Y-53602
X66413Y-11370
X66441Y-53098
X67890Y-18610
X67919Y-27982
X68020Y-14823
X68102Y-23783
X68157Y-30689
X68291Y-32205
X68390Y-22650
X68390Y-31291
X68667Y-30524
X68957Y-15213
X68976Y-55606
X69020Y-54047
X69185Y-20217
X69609Y-15234
X69717Y-16110
X69965Y-22673
X69988Y-20008
X70102Y-11780
X70264Y-14748
X70488Y-28228
X70496Y-15083
X70516Y-15410
X70581Y-46969
X71677Y-15441
X72681Y-27982
X72918Y-30439
X73142Y-15098
X73167Y-30632
X73453Y-30764
X73693Y-12929
X74748Y-14240
X76256Y-13728
X76724Y-27976
X76996Y-30067
X77011Y-25984
X77268Y-28748
X77323Y-30445
X77636Y-31257
X77772Y-15831
X77787Y-32150
X78035Y-30429
T2
X78106Y-50055
X78106Y-52614
X79878Y-50055
X79878Y-52614
T3
X35502Y-49837
X35502Y-50837
X35502Y-51837
X35502Y-52837
X36502Y-49837
X36502Y-50837
X36502Y-51837
X36502Y-52837
X40988Y-33451
X41988Y-33451
X42988Y-33451
X60864Y-48970
X61002Y-52419
X61238Y-37134
X61238Y-44134
X61329Y-39634
X61329Y-40634
X61329Y-41634
X61864Y-48970
X62002Y-52419
X62238Y-37134
X62238Y-44134
X62864Y-48970
X63002Y-52419
X63238Y-37134
X63238Y-44134
X63484Y-32945
X63864Y-48970
X64002Y-52419
X64238Y-37134
X64238Y-44134
X64484Y-32945
X64780Y-13057
X64780Y-14057
X64864Y-48970
X65002Y-52419
X65238Y-37134
X65238Y-44134
X65484Y-32945
X65780Y-13057
X65780Y-14057
X65864Y-48970
X66002Y-52419
X66238Y-37134
X66238Y-44134
X66484Y-32945
X66780Y-13057
X66780Y-14057
X66864Y-48970
X67002Y-52419
X67238Y-37134
X67238Y-44134
X67484Y-32945
X67780Y-13057
X67780Y-14057
X67864Y-48970
X68002Y-52419
X68238Y-37134
X68238Y-44134
X68484Y-32945
X68780Y-13057
X68780Y-14057
X68864Y-48970
X69002Y-52419
X69238Y-37134
X69238Y-44134
X69484Y-32945
X69780Y-13057
X69780Y-14057
X69864Y-48970
X70002Y-52419
X70238Y-37134
X70238Y-44134
X70484Y-32945
X70780Y-13057
X70780Y-14057
X70864Y-48970
X71002Y-52419
X71238Y-37134
X71238Y-44134
X71484Y-32945
X71780Y-13057
X71780Y-14057
X71864Y-48970
X72002Y-52419
X72238Y-37134
X72238Y-44134
X72484Y-32945
X72864Y-48970
X73002Y-52419
X73238Y-37134
X73238Y-44134
X73484Y-32945
X73864Y-48970
X74002Y-52419
X74238Y-37134
X74238Y-44134
X74484Y-32945
X74864Y-48970
X75002Y-52419
X75238Y-37134
X75238Y-44134
X75484Y-32945
X75864Y-48970
X76002Y-52419
X76238Y-37134
X76238Y-44134
X76484Y-32945
X77238Y-37134
X77238Y-44134
X77484Y-32945
X78238Y-37134
X78238Y-44134
X78484Y-32945
X79238Y-37134
X79238Y-44134
X80238Y-37134
X80238Y-44134
T4
X33187Y-33522
X33187Y-35522
T5
X31614Y-59388
X31618Y-11049
X79937Y-59392
X79941Y-11061
T0
M30
